<svg width="31" height="33" fill="none" xmlns="http://www.w3.org/2000/svg"><path d="M28.708.676c-1.355-.881-2.866.818-3.751 1.825-2.032 2.392-3.751 5.16-5.68 7.678-2.135 2.77-4.115 5.538-6.303 8.244-1.25 1.51-2.605 3.147-3.439 5.035-1.875-2.203-3.49-4.594-5.575-6.545-1.51-1.385-4.011-2.392-3.96.944.105 4.343 3.283 9 5.628 11.957.99 1.259 2.292 2.58 3.803 2.644 1.823.125 3.699-2.518 4.793-3.965 1.928-2.518 3.49-5.35 5.262-7.93 2.293-3.398 4.637-6.734 6.877-10.195C27.77 8.228 32.2 2.942 28.708.676zM2.293 17.606c-.052 0-.104 0-.208.062a2.273 2.273 0 01-.573-.252c.156-.125.416-.063.781.19z" fill="#5D442A"/></svg>