<svg width="31" height="33" viewBox="0 0 31 33" fill="none" xmlns="http://www.w3.org/2000/svg">
<path d="M28.7079 0.676011C27.3533 -0.205059 25.8424 1.49415 24.9567 2.50108C22.9249 4.89256 21.2056 7.66164 19.2778 10.179C17.1417 12.9481 15.1619 15.7171 12.9737 18.4234C11.7233 19.9338 10.3687 21.5701 9.5351 23.4581C7.6595 21.2553 6.0444 18.8638 3.9604 16.913C2.4495 15.5284 -0.0512987 14.5215 0.000801254 17.857C0.105001 22.1995 3.2831 26.8566 5.6276 29.8144C6.6175 31.073 7.92 32.3946 9.4309 32.4576C11.2544 32.5834 13.13 29.9402 14.2241 28.4928C16.1519 25.9754 17.7149 23.1433 19.4862 20.5631C21.7786 17.1647 24.1231 13.8291 26.3634 10.3678C27.7701 8.22804 32.1986 2.94152 28.7079 0.676011ZM2.29312 17.6052C2.24102 17.6052 2.18892 17.6052 2.08472 17.6681C1.87632 17.6052 1.72002 17.5422 1.51162 17.4163C1.66792 17.2905 1.92842 17.3534 2.29312 17.6052Z" fill="#5D442A"/>
</svg>
