<svg width="15" height="17" fill="none" xmlns="http://www.w3.org/2000/svg"><path d="M13.914 1.056c-.657-.427-1.39.397-1.818.885-.985 1.159-1.818 2.501-2.753 3.721-1.035 1.342-1.995 2.684-3.055 3.996-.606.732-1.263 1.525-1.667 2.44C3.712 11.03 2.93 9.871 1.92 8.926 1.187 8.255-.025 7.766 0 9.383c.05 2.105 1.591 4.362 2.728 5.796.48.61 1.11 1.25 1.843 1.28.884.062 1.793-1.22 2.323-1.92.934-1.22 1.692-2.594 2.55-3.844 1.111-1.647 2.248-3.264 3.333-4.941.682-1.037 2.829-3.6 1.137-4.698zM1.11 9.261c-.025 0-.05 0-.1.03a1.101 1.101 0 01-.278-.121c.075-.061.202-.03.378.091z" fill="#5D442A"/></svg>