<svg width="15" height="17" viewBox="0 0 15 17" fill="none" xmlns="http://www.w3.org/2000/svg">
<path d="M13.9137 1.05641C13.2572 0.629387 12.5249 1.45293 12.0956 1.94096C11.1109 3.10002 10.2776 4.4421 9.34327 5.66217C8.30797 7.00424 7.34844 8.34631 6.28789 9.65794C5.68187 10.39 5.02534 11.183 4.62133 12.0981C3.71229 11.0305 2.92951 9.8714 1.91947 8.9259C1.18719 8.25486 -0.0248627 7.76683 0.000388339 9.38342C0.0508904 11.4881 1.5912 13.7452 2.7275 15.1787C3.20727 15.7888 3.83854 16.4293 4.57082 16.4598C5.45461 16.5208 6.36365 15.2397 6.89392 14.5382C7.82825 13.3181 8.58578 11.9455 9.44427 10.695C10.5553 9.0479 11.6916 7.43126 12.7774 5.75367C13.4592 4.71661 15.6055 2.15442 13.9137 1.05641ZM1.11139 9.26141C1.08614 9.26141 1.06089 9.26141 1.01039 9.29187C0.909384 9.26141 0.833631 9.23086 0.732627 9.16986C0.80838 9.10886 0.934635 9.13936 1.11139 9.26141Z" fill="#5D442A"/>
</svg>
