<svg width="50" height="50" viewBox="0 0 50 50" fill="none" xmlns="http://www.w3.org/2000/svg">
<g clip-path="url(#clip0)">
<path d="M48.5028 12.166L43.3534 7.01837C42.2738 5.93854 40.5249 5.93854 39.4454 7.01837L18.9834 27.4817L10.579 19.0772C9.49918 17.9975 7.74876 17.996 6.66934 19.0755L1.51821 24.2282C0.438483 25.3079 0.436961 27.0583 1.51659 28.138L15.7364 42.3596C17.4902 44.113 20.3331 44.118 22.0932 42.3707C28.5954 35.9138 43.2063 21.3546 48.4997 16.0805C49.02 15.562 49.3127 14.8587 49.3127 14.125C49.3143 13.3897 49.0217 12.6865 48.5028 12.166Z" fill="#AFD322"/>
</g>
<defs>
<clipPath id="clip0">
<rect width="48.6051" height="48.6051" fill="white" transform="translate(0.707642 0.640625)"/>
</clipPath>
</defs>
</svg>
