<svg class="logo-shadow" viewBox="0 0 3270 523" xmlns="http://www.w3.org/2000/svg" fill-rule="evenodd" clip-rule="evenodd" stroke-linejoin="round" stroke-miterlimit="2"><path d="M3.542 339.996V47.613c0-2.209.883-4.417 2.65-6.184 1.325-1.325 3.533-2.208 5.741-2.208h52.559c2.208 0 4.416.883 6.183 2.65 1.325 1.767 2.208 3.533 2.208 5.742v235.85H178c2.209 0 4.417.883 6.184 2.208 1.325 1.767 2.208 3.975 2.208 6.184v48.141c0 2.209-.883 4.417-2.208 5.742-1.767 1.767-3.975 2.65-6.184 2.65H11.933c-2.208 0-4.416-.883-5.741-2.65-1.767-1.325-2.65-3.533-2.65-5.742zM213.77 348.388c-3.092 0-5.742-1.325-7.508-3.533-1.325-2.209-1.325-4.859 0-7.95L344.504 39.663c1.325-3.092 3.975-4.859 7.508-4.859h4.417c3.533 0 6.183 1.767 7.508 4.859l138.242 297.242c1.325 3.091 1.325 5.741 0 7.95-1.767 2.208-4.417 3.533-7.509 3.533h-49.025c-6.625 0-11.925-3.533-15.458-11.042l-15.9-34.891H294.153l-15.9 35.333c-3.091 7.067-8.391 10.6-15.9 10.6H213.77zm106.883-106h67.134l-33.567-72.875h-.441l-33.126 72.875zM582.563 346.621l-83.475-296.8c-.883-3.092-.441-5.3.884-7.508 1.325-2.209 3.975-3.092 7.066-3.092h51.675c3.975 0 6.625 2.208 7.95 6.183l37.984 149.726h1.766l68.459-155.467c1.767-3.092 4.417-4.859 7.508-4.859h7.95c3.975 0 6.184 1.767 7.509 4.859l68.458 155.467h1.767l37.983-149.726c1.325-3.975 3.975-6.183 7.95-6.183h51.675c3.092 0 5.742.883 7.067 3.092 1.325 2.208 1.766 4.416.883 7.508l-83.475 296.8c-.883 3.975-3.533 6.184-7.95 6.184h-7.067c-3.091 0-5.741-1.767-7.508-4.859l-80.825-180.641h-1.325l-80.384 180.641c-1.766 3.092-4.416 4.859-7.508 4.859h-7.067c-4.416 0-7.066-2.209-7.95-6.184zM923.092 339.996l-.442-297.242c0-2.208.883-3.975 2.65-5.741 1.325-1.325 3.533-2.209 5.742-2.209h11.041l176.226 169.6h.441V47.614c0-2.209.884-4.417 2.65-6.184 1.325-1.325 3.534-2.208 5.742-2.208h53c2.208 0 4.417.883 6.183 2.65 1.325 1.767 2.209 3.533 2.209 5.742v297.242c0 2.208-.884 3.975-2.209 5.741-1.766 1.325-3.975 2.209-6.183 2.209h-7.067c-2.208 0-4.416-.884-5.741-2.209L992.875 175.255h-.442v164.741c0 2.209-.883 4.417-2.208 5.742-1.767 1.767-3.975 2.65-6.183 2.65h-52.559c-2.208 0-3.975-.883-5.741-2.65-1.767-1.767-2.65-3.533-2.65-5.742zM1251.243 318.796c-2.208-2.208-3.533-4.416-3.975-5.741-.441-1.325.442-3.534 1.767-6.625l20.758-36.659c1.325-2.65 3.975-3.975 7.509-4.416 3.533-.442 6.183.441 7.508 1.766l3.092 1.767c2.208 1.325 4.416 3.092 7.508 4.858 2.65 1.767 6.183 3.534 10.6 5.742 3.975 2.208 8.392 3.975 12.808 5.742 3.975 1.766 8.834 3.091 14.134 4.416 4.858 1.325 9.716 1.767 14.575 1.767 8.833 0 16.342-2.65 22.083-7.508 5.742-4.859 8.392-11.484 8.392-18.992 0-17.667-15.017-32.683-45.492-44.608-56.975-22.525-85.683-55.209-85.683-97.609 0-23.85 8.833-44.608 26.941-61.833 18.109-17.225 42.842-26.059 75.084-26.059 33.125 0 64.483 11.042 94.517 33.125 2.208 1.325 3.533 3.975 3.975 7.067.441 3.092 0 5.742-1.325 7.067l-22.525 34.008c-1.767 2.65-3.975 4.417-7.067 5.742-3.092 1.766-5.742 1.325-7.95 0-.442 0-2.208-1.325-5.3-3.534-3.092-2.208-7.067-4.858-11.042-7.066-3.975-2.209-8.833-4.417-13.691-7.067-5.3-2.65-11.042-4.858-16.784-6.625-5.742-1.325-11.483-2.208-16.342-2.208-7.95 0-14.575 2.208-19.875 6.625-5.3 4.416-7.95 9.716-7.95 15.9 0 8.391 3.534 15.458 11.042 22.083 7.508 7.067 19.875 13.692 37.1 20.759 59.625 23.408 89.217 56.975 89.217 100.7 0 24.291-9.717 45.491-28.708 63.6-19.434 18.55-44.609 27.825-75.526 27.825-25.175 0-45.933-3.534-62.275-11.042-16.783-7.508-29.15-15.017-37.1-22.967zM1610.762 339.996V47.613c0-2.209.883-4.417 2.65-6.184 1.325-1.325 3.533-2.208 5.741-2.208h106.442c26.942 0 50.35 9.717 69.784 28.708 19.433 18.992 29.15 41.959 29.15 68.9 0 27.384-9.717 50.792-28.709 70.226-19.433 19.433-42.841 29.15-69.783 29.15h-46.375v103.791c0 2.209-.884 3.975-2.65 5.742-1.767 1.767-3.534 2.65-5.742 2.65h-52.117c-2.208 0-4.416-.883-5.741-2.65-1.767-1.325-2.65-3.533-2.65-5.742zm68.9-168.275h41.958c9.717 0 18.109-3.533 24.734-10.158s10.158-15.017 10.158-24.733c0-9.276-3.533-16.784-10.158-23.409-6.625-6.183-15.017-9.275-24.734-9.275h-41.958v67.575zM1871.792 339.996V47.613c0-2.209.883-4.417 2.65-6.184 1.325-1.325 3.533-2.208 5.741-2.208h52.559c2.208 0 4.416.883 6.183 2.65 1.325 1.767 2.208 3.533 2.208 5.742v235.85h105.117c2.209 0 4.417.883 6.184 2.208 1.325 1.767 2.208 3.975 2.208 6.184v48.141c0 2.209-.883 4.417-2.208 5.742-1.767 1.767-3.975 2.65-6.184 2.65h-166.067c-2.208 0-4.416-.883-5.741-2.65-1.767-1.325-2.65-3.533-2.65-5.742zM2091.735 230.021V47.613c0-2.209.883-3.975 2.65-5.742s3.533-2.65 5.742-2.65h54.325c2.208 0 4.416.883 6.183 2.208 1.325 1.767 2.208 3.975 2.208 6.184v178.875c0 15.458 5.3 28.708 15.459 39.308 10.158 11.042 23.408 16.342 38.867 16.342 15.9 0 29.15-5.3 39.75-16.342 10.158-10.6 15.458-23.85 15.458-39.308V47.613c0-2.209.883-4.417 2.65-6.184 1.325-1.325 3.533-2.208 5.742-2.208h54.325c2.208 0 3.975.883 5.741 2.65 1.767 1.767 2.65 3.533 2.65 5.742V230.02c0 33.567-12.366 62.275-37.1 86.567-24.733 24.292-54.325 36.217-89.216 36.217-34.45 0-64.042-11.925-88.334-36.217-24.733-24.292-37.1-53-37.1-86.567zM2401.343 318.796c-2.208-2.208-3.533-4.416-3.975-5.741-.441-1.325.442-3.534 1.767-6.625l20.758-36.659c1.325-2.65 3.975-3.975 7.509-4.416 3.533-.442 6.183.441 7.508 1.766l3.092 1.767c2.208 1.325 4.416 3.092 7.508 4.858 2.65 1.767 6.183 3.534 10.6 5.742 3.975 2.208 8.392 3.975 12.808 5.742 3.975 1.766 8.834 3.091 14.134 4.416 4.858 1.325 9.716 1.767 14.575 1.767 8.833 0 16.342-2.65 22.083-7.508 5.742-4.859 8.392-11.484 8.392-18.992 0-17.667-15.017-32.683-45.492-44.608-56.975-22.525-85.683-55.209-85.683-97.609 0-23.85 8.833-44.608 26.941-61.833 18.109-17.225 42.842-26.059 75.084-26.059 33.125 0 64.483 11.042 94.517 33.125 2.208 1.325 3.533 3.975 3.975 7.067.441 3.092 0 5.742-1.325 7.067l-22.525 34.008c-1.767 2.65-3.975 4.417-7.067 5.742-3.092 1.766-5.742 1.325-7.95 0-.442 0-2.208-1.325-5.3-3.534-3.092-2.208-7.067-4.858-11.042-7.066-3.975-2.209-8.833-4.417-13.691-7.067-5.3-2.65-11.042-4.858-16.784-6.625-5.742-1.325-11.483-2.208-16.342-2.208-7.95 0-14.575 2.208-19.875 6.625-5.3 4.416-7.95 9.716-7.95 15.9 0 8.391 3.534 15.458 11.042 22.083 7.508 7.067 19.875 13.692 37.1 20.759 59.625 23.408 89.217 56.975 89.217 100.7 0 24.291-9.717 45.491-28.708 63.6-19.434 18.55-44.609 27.825-75.526 27.825-25.175 0-45.933-3.534-62.275-11.042-16.783-7.508-29.15-15.017-37.1-22.967z" fill="#fff" fill-rule="nonzero"/><g><path d="M0 519.791V419.207h16.717v83.442H58.51v17.142H0zM148.327 519.791h-18.275l-7.225-23.092H89.535l-6.8 23.092h-17.85l32.442-101.434h17.708l33.292 101.434zm-30.883-40.092l-11.475-37.683-11.334 37.683h22.809zM165.444 519.791l-19.975-101.434h17.283l12.467 69.7 15.158-69.7h19.975l14.592 70.834 12.892-70.834h16.858l-20.258 101.434h-17.85l-16.576-75.792-16.433 75.792h-18.133zM266.307 519.791V418.357H282.6l34.142 67.717v-67.717h15.583v101.434h-16.858l-33.576-66.158v66.158h-15.583zM383.725 486.783l16.434-1.984c1.841 13.034 7.791 19.55 17.991 19.55 5.1 0 9.067-1.416 12.042-3.966 2.833-2.692 4.392-5.95 4.392-9.917 0-2.267-.567-4.25-1.559-5.95-.991-1.558-2.55-2.833-4.675-3.967-1.983-.991-7.083-2.691-15.016-5.1-7.225-2.266-12.467-4.533-15.725-7.083-3.4-2.55-5.95-5.95-7.934-10.058-1.983-4.109-2.975-8.5-2.975-13.317 0-5.525 1.275-10.484 3.825-14.875 2.55-4.534 5.95-7.792 10.342-10.059 4.533-2.266 9.917-3.4 16.433-3.4 9.775 0 17.426 2.692 22.95 7.934 5.384 5.383 8.359 12.891 8.642 22.808l-16.717.85c-.85-5.383-2.408-9.208-4.816-11.333-2.409-2.267-5.95-3.259-10.484-3.259-4.533 0-7.933.85-10.483 2.834-2.408 1.841-3.542 4.25-3.542 6.941 0 2.834.992 5.1 3.259 7.084 2.266 1.842 7.366 3.967 15.3 6.233 8.358 2.409 14.592 4.959 18.275 7.65 3.825 2.692 6.658 6.234 8.642 10.484 1.983 4.25 2.975 9.491 2.975 15.441 0 8.925-2.692 16.292-8.217 22.242-5.383 6.092-13.884 9.067-25.359 9.067-20.4 0-31.733-11.617-34-34.85zM468.275 519.791V418.357h61.767V435.5h-45.05v22.525h41.792v17.142h-41.792v27.483h46.467v17.142h-63.184zM548.585 519.791V418.357h35.417c8.925 0 15.442.992 19.267 2.692 3.967 1.842 7.083 5.1 9.633 9.492 2.409 4.533 3.684 9.916 3.684 16.15 0 7.933-1.842 14.308-5.667 19.267-3.825 4.816-9.208 7.791-16.292 9.066 3.684 2.55 6.659 5.384 8.925 8.5 2.409 3.117 5.525 8.5 9.634 16.434l10.058 19.833h-19.975l-12.184-22.1c-4.391-7.933-7.366-12.892-8.925-14.875-1.558-2.125-3.116-3.4-4.958-4.25-1.7-.708-4.533-1.133-8.358-1.133h-3.542v42.358h-16.717zm16.717-58.508h12.467c7.65 0 12.466-.284 14.591-.992 1.984-.708 3.684-1.983 4.959-4.108 1.275-1.984 1.983-4.675 1.983-8.076 0-3.258-.708-5.808-1.983-7.791-1.275-1.984-2.975-3.259-5.242-3.967-1.558-.567-6.092-.85-13.6-.85h-13.175v25.784zM654.364 519.791l-29.609-101.434h18.134l21.108 75.084 20.259-75.084h17.85l-29.75 101.434h-17.992zM712.989 418.357h16.716v101.434H712.99zM801.962 482.533l16.15 6.233c-2.55 11.333-6.658 19.692-12.608 24.933-5.95 5.242-13.175 7.792-21.817 7.792-10.767 0-19.55-4.108-26.35-12.467-7.792-9.633-11.617-22.666-11.617-39.1 0-17.283 3.967-30.742 11.759-40.517 6.658-8.5 15.866-12.75 27.2-12.75 9.35 0 17.142 3.117 23.375 9.492 4.533 4.533 7.792 11.333 9.917 20.117l-16.575 4.958c-1.134-5.525-3.259-9.775-6.376-12.608-3.116-2.975-6.941-4.392-11.191-4.392-6.092 0-11.192 2.55-15.017 7.933-3.825 5.384-5.808 14.167-5.808 26.492 0 12.75 1.841 21.817 5.666 27.342 3.825 5.383 8.784 8.075 14.734 8.075 4.391 0 8.216-1.7 11.475-5.242 3.258-3.4 5.525-8.783 7.083-16.291zM835.365 519.791V418.357h61.767V435.5h-45.05v22.525h41.792v17.142h-41.792v27.483h46.467v17.142h-63.184zM1024.34 507.466l-9.633 15.017c-4.675-2.834-9.35-6.659-13.6-11.617-3.541 3.825-7.083 6.517-10.908 8.217-3.825 1.7-8.217 2.55-13.317 2.55-9.917 0-17.425-3.117-22.242-9.209-4.816-6.091-7.225-12.891-7.225-20.4 0-13.033 6.375-23.375 18.984-31.166-5.667-8.075-8.5-15.442-8.5-22.242 0-6.517 2.125-11.759 6.375-15.867 4.25-4.108 9.775-6.092 16.858-6.092 6.8 0 12.325 2.125 16.575 6.375s6.375 9.775 6.375 16.717c0 4.25-1.133 8.358-3.258 12.042-2.125 3.683-6.092 7.65-11.9 12.183l11.617 18.559c1.275-2.834 2.408-6.659 3.541-11.475l14.309 3.966c-2.267 9.917-4.534 16.859-7.225 20.967 1.841 1.983 4.108 4.108 6.941 6.517 2.834 2.55 4.959 4.108 6.234 4.958zm-43.35-55.25l4.25-3.967c3.259-2.975 4.817-5.95 4.817-8.783 0-2.692-.85-4.959-2.408-6.659-1.7-1.558-3.684-2.408-6.092-2.408-2.408 0-4.392.708-5.808 2.125-1.559 1.558-2.267 3.258-2.267 5.383 0 2.55 1.133 5.384 3.542 8.784l3.966 5.525zm-6.233 21.108c-3.683 2.267-6.375 4.959-8.217 8.075-1.841 3.259-2.833 6.517-2.833 9.917 0 4.392 1.275 7.792 3.542 10.342 2.266 2.55 5.383 3.825 8.925 3.825 4.816 0 9.633-2.55 14.733-7.65l-16.15-24.509zM1072.615 519.791V418.357h26.917c10.058 0 16.575.567 19.692 1.417 4.958 1.7 9.067 4.958 12.183 10.058 3.259 5.1 4.817 11.759 4.817 19.834 0 7.367-1.275 13.458-4.108 18.417-2.834 4.958-6.234 8.5-10.342 10.483-4.25 1.983-11.334 2.975-21.534 2.975h-10.908v38.25h-16.717zm16.717-84.292v28.759h9.208c6.234 0 10.484-.425 12.75-1.275 2.267-.85 3.967-2.409 5.525-4.675 1.417-2.267 2.125-5.1 2.125-8.5 0-3.259-.708-6.092-2.266-8.5-1.417-2.267-3.259-3.826-5.384-4.534-2.266-.85-6.8-1.275-13.883-1.275h-8.075zM1152.925 519.791V418.357h35.417c8.925 0 15.442.992 19.267 2.692 3.967 1.842 7.083 5.1 9.633 9.492 2.409 4.533 3.684 9.916 3.684 16.15 0 7.933-1.842 14.308-5.667 19.267-3.825 4.816-9.208 7.791-16.292 9.066 3.684 2.55 6.659 5.384 8.925 8.5 2.409 3.117 5.525 8.5 9.634 16.434l10.058 19.833h-19.975l-12.184-22.1c-4.391-7.933-7.366-12.892-8.925-14.875-1.558-2.125-3.116-3.4-4.958-4.25-1.7-.708-4.533-1.133-8.358-1.133h-3.542v42.358h-16.717zm16.717-58.508h12.467c7.65 0 12.466-.284 14.591-.992 1.984-.708 3.684-1.983 4.959-4.108 1.275-1.984 1.983-4.675 1.983-8.076 0-3.258-.708-5.808-1.983-7.791-1.275-1.984-2.975-3.259-5.242-3.967-1.558-.567-6.092-.85-13.6-.85h-13.175v25.784zM1236.195 469.64c0-12.04 1.842-21.958 5.384-29.75 3.541-7.79 8.216-13.6 14.025-17.566 5.808-3.825 12.75-5.667 20.966-5.667 11.9 0 21.534 4.534 29.042 13.6 7.509 9.067 11.192 22.1 11.192 38.817 0 17-3.967 30.175-11.9 39.809-6.942 8.358-16.292 12.608-28.334 12.608-12.041 0-21.533-4.108-28.475-12.467-7.933-9.633-11.9-22.666-11.9-39.383zm17.284-.566c0 11.617 2.266 20.4 6.658 26.209 4.392 5.808 9.917 8.783 16.433 8.783 6.659 0 12.042-2.975 16.434-8.783 4.392-5.667 6.517-14.592 6.517-26.634 0-11.758-2.125-20.4-6.375-26.067-4.25-5.666-9.776-8.358-16.576-8.358-6.8 0-12.325 2.833-16.575 8.5-4.391 5.667-6.516 14.45-6.516 26.35zM1332.835 519.791V418.357h26.917c10.058 0 16.575.567 19.692 1.417 4.958 1.7 9.067 4.958 12.183 10.058 3.259 5.1 4.817 11.759 4.817 19.834 0 7.367-1.275 13.458-4.108 18.417-2.834 4.958-6.234 8.5-10.342 10.483-4.25 1.983-11.334 2.975-21.534 2.975h-10.908v38.25h-16.717zm16.717-84.292v28.759h9.208c6.234 0 10.484-.425 12.75-1.275 2.267-.85 3.967-2.409 5.525-4.675 1.417-2.267 2.125-5.1 2.125-8.5 0-3.259-.708-6.092-2.266-8.5-1.417-2.267-3.259-3.826-5.384-4.534-2.266-.85-6.8-1.275-13.883-1.275h-8.075zM1413.145 519.791V418.357h61.767V435.5h-45.05v22.525h41.792v17.142h-41.792v27.483h46.467v17.142h-63.184zM1493.455 519.791V418.357h35.417c8.925 0 15.442.992 19.267 2.692 3.967 1.842 7.083 5.1 9.633 9.492 2.409 4.533 3.684 9.916 3.684 16.15 0 7.933-1.842 14.308-5.667 19.267-3.825 4.816-9.208 7.791-16.292 9.066 3.684 2.55 6.659 5.384 8.925 8.5 2.409 3.117 5.525 8.5 9.634 16.434l10.058 19.833h-19.975l-12.184-22.1c-4.391-7.933-7.366-12.892-8.925-14.875-1.558-2.125-3.116-3.4-4.958-4.25-1.7-.708-4.533-1.133-8.358-1.133h-3.542v42.358h-16.717zm16.717-58.508h12.467c7.65 0 12.466-.284 14.591-.992 1.984-.708 3.684-1.983 4.959-4.108 1.275-1.984 1.983-4.675 1.983-8.076 0-3.258-.708-5.808-1.983-7.791-1.275-1.984-2.975-3.259-5.242-3.967-1.558-.567-6.092-.85-13.6-.85h-13.175v25.784zM1598.825 519.791v-84.292h-24.65v-17.142h66.017V435.5h-24.65v84.292h-16.717zM1675.752 519.791v-42.642l-30.458-58.792h19.691l19.55 40.092 19.267-40.092h19.267l-30.6 58.934v42.5h-16.717zM1767.082 519.791V418.357h25.075l15.158 69.134 14.876-69.134h25.216v101.434h-15.583v-79.759l-16.575 79.759h-16.15l-16.434-79.759v79.759h-15.583zM1941.917 519.791h-18.275l-7.225-23.092h-33.292l-6.8 23.092h-17.85l32.442-101.434h17.708l33.292 101.434zm-30.883-40.092l-11.475-37.683-11.334 37.683h22.809zM1953.787 519.791V418.357h16.292l34.142 67.717v-67.717h15.583v101.434h-16.858l-33.576-66.158v66.158h-15.583zM2115.257 519.791h-18.275l-7.225-23.092h-33.292l-6.8 23.092h-17.85l32.442-101.434h17.708l33.292 101.434zm-30.883-40.092l-11.475-37.683-11.334 37.683h22.809zM2165.66 482.533V465.39h36.126v40.375c-3.542 4.392-8.784 8.075-15.442 11.05-6.658 3.117-13.459 4.675-20.117 4.675-8.217 0-15.442-1.983-21.675-6.092-6.375-3.966-11.333-10.058-15.017-17.991-3.683-8.075-5.383-17.567-5.383-28.475 0-11.192 1.842-20.684 5.525-28.617 3.683-7.934 8.5-13.884 14.45-17.85 5.95-3.825 13.033-5.809 21.25-5.809 9.917 0 17.85 2.55 23.8 7.509 5.95 5.1 9.917 12.466 11.617 22.241l-16.717 3.826c-1.133-5.242-3.541-9.209-6.8-11.9-3.258-2.834-7.225-4.109-11.9-4.109-7.083 0-12.892 2.692-17.425 8.217-4.392 5.666-6.517 14.025-6.517 25.5 0 12.183 2.409 21.533 7.084 27.908 4.108 5.384 9.775 8.217 16.716 8.217 3.259 0 6.659-.85 10.2-2.408 3.542-1.559 6.659-3.542 9.492-6.234v-12.891h-19.267zM2220.235 519.791V418.357h61.767V435.5h-45.05v22.525h41.792v17.142h-41.792v27.483h46.467v17.142h-63.184zM2300.252 519.791V418.357h25.075l15.158 69.134 14.876-69.134h25.216v101.434h-15.583v-79.759l-16.575 79.759h-16.15l-16.434-79.759v79.759h-15.583zM2400.145 519.791V418.357h61.767V435.5h-45.05v22.525h41.792v17.142h-41.792v27.483h46.467v17.142h-63.184zM2480.597 519.791V418.357h16.292l34.142 67.717v-67.717h15.583v101.434h-16.858l-33.576-66.158v66.158h-15.583zM2585.825 519.791v-84.292h-24.65v-17.142h66.017V435.5h-24.65v84.292h-16.717z" fill="#fff" fill-rule="nonzero"/></g><g><path d="M3123.9 127.83c-4.375 84.733-17.951 193.96-57.432 243.941-21.592 27.512-47.663 48.62-75.539 62.832 8.475 3.048 88.647 29.731 154.637-25.085 76.628-63.238 123.78-304.319 123.78-304.319s-50.655 25.81-124.752 23.115c-6.948-.211-13.854-.385-20.693-.484zm-223.38 132.582c47.082-37.7 89.064-63.134 89.064-63.134-36.033 32.707-67.846 64.53-96.761 96.972 1.478-11.311 4.053-22.651 7.696-33.838z" fill="#fff"/><path d="M3049.161 357.927C3118.461 270.204 3107.953 0 3107.953 0s-50.014 40.88-133.808 57.421c-78.755 15.985-151.52 35.47-189.937 84.423-59.416 75.713-65.353 174.1-19.48 238.692 42.76-97.266 207.55-197.103 207.55-197.103-113.476 103.004-185.114 197.22-256.073 329.835l47.451.472s24.41-60.406 48.59-90.63c72.805 40.814 173.93 15.079 236.915-65.183z" fill="#fff" fill-rule="nonzero"/></g></svg>